<svg version="1.1" id="Layer_1" xmlns:x="ns_extend;" xmlns:i="ns_ai;" xmlns:graph="ns_graphs;" xmlns="http://www.w3.org/2000/svg" xmlns:xlink="http://www.w3.org/1999/xlink" x="0px" y="0px" viewBox="0 0 2000.6 669.3" style="enable-background:new 0 0 2000.6 669.3;" xml:space="preserve">
 <style type="text/css">
  .st0{fill:#FFFFFF;}
 </style>
 <metadata>
  <sfw xmlns="ns_sfw;">
   <slices>
   </slices>
   <sliceSourceBounds bottomLeftOrigin="true" height="669.4" width="2000.6" x="0" y="0">
   </sliceSourceBounds>
  </sfw>
 </metadata>
 <path class="st0" d="M1711.3,627.2v42.1h289.2v-190h-42.1v147.9L1711.3,627.2z M1711.3,0v42.1h247.1v147.9h42.1V0H1711.3z
	 M1562.2,326v-97.9h66.1c32.2,0,43.8,10.7,43.8,40.1v17.4c0,30.2-11.2,40.5-43.8,40.5H1562.2z M1667.1,343.4
	c30.2-7.9,51.2-36,51.2-69.4c0-21.1-8.3-40.1-24-55.4c-19.8-19-46.3-28.5-80.6-28.5h-93v289.2h41.3V364h62
	c31.8,0,44.6,13.2,44.6,46.3v69h42.1v-62.4c0-45.5-10.7-62.8-43.8-67.8V343.4z M1319.3,352.9h127.3v-38h-127.3v-86.8h139.7v-38
	h-181.8v289.2h188v-38h-145.8V352.9z M1180.8,368.1V388c0,41.7-15.3,55.4-53.7,55.4h-9.1c-38.4,0-57-12.4-57-69.8v-77.7
	c0-57.8,19.4-69.8,57.8-69.8h8.3c37.6,0,49.6,14.1,50,52.9h45.4c-4.1-57-42.1-93-99.2-93c-27.7,0-50.8,8.7-68.2,25.2
	c-26,24.4-40.5,65.7-40.5,123.5c0,55.8,12.4,97.1,38,122.7c17.3,16.9,41.3,26,64.9,26c24.8,0,47.5-9.9,59.1-31.4h5.8v27.3h38V330.1
	h-112v38H1180.8z M816.4,228.1h45c42.6,0,65.7,10.7,65.7,68.6v76c0,57.8-23.1,68.6-65.7,68.6h-45V228.1z M865.2,479.3
	c78.9,0,108.2-59.9,108.2-144.6c0-85.9-31.4-144.6-109.1-144.6h-89.2v289.2L865.2,479.3z M575.5,352.9h127.3v-38H575.5v-86.8h139.7
	v-38H533.4v289.2h188v-38H575.5V352.9z M331.8,190.1h-42.1v289.2h190.1v-38H331.8V190.1z M0,479.3v190.1h289.2v-42.2H42.1V479.3
	L0,479.3z M0,0v190.1h42.1V42.1h247.1V0H0z">
 </path>
</svg>