<svg width="226" height="33" viewBox="0 0 226 33" fill="none" xmlns="http://www.w3.org/2000/svg">
<g clip-path="url(#clip0_4001_3)">
<path d="M6.27839 22.9154L8.68163 20.8823L3.60852 16.4779L7.7795 12.8566V12.8382L12.5202 8.73529L19.6204 2.5625L18.3823 0.110291H1.23815L0 2.5625L6.26378 8.00735L8.64876 5.94485L5.25573 2.99632H14.3391L11.6327 5.37132H11.64L10.7598 6.1397L9.96726 6.83455C9.96726 6.83455 9.949 6.84558 9.93804 6.85294L4.21481 11.8125L0 15.4669V17.4853L6.27839 22.9154Z" fill="#F0F0F0" fill-opacity="0.933333"/>
<path d="M19.6204 17.489V15.4706L13.342 10.011L10.9388 12.0405L15.979 16.478L9.94169 21.7243C9.94169 21.7243 9.90517 21.7463 9.88691 21.7574L7.16226 24.1177C7.14399 24.1434 7.12208 24.1691 7.09651 24.1912L0 30.3235L1.23815 32.7758H18.3859L19.6241 30.3235L13.3676 24.9118L10.9863 26.9743L14.3428 29.8897H5.25208L9.81751 25.9596L12.5166 23.625C12.5166 23.625 12.5166 23.625 12.5202 23.6213L19.6168 17.4853L19.6204 17.489Z" fill="#F0F0F0" fill-opacity="0.933333"/>
<path d="M38.9013 15.1213L34.9969 14.5772C33.0648 14.2831 30.6616 13.9118 30.6616 11.9743C30.6616 10.4338 31.8668 9.18017 33.3533 9.18017H37.7763C39.7924 9.18017 41.5565 10.4706 42.2687 12.4706L42.3308 12.6397L45.081 11.6691L45.1212 11.6544L45.0664 11.4853C44.0218 8.26841 41.0927 6.10297 37.7763 6.10297H33.3533C30.2452 6.10297 27.7141 8.73532 27.7141 11.9743C27.7141 16.0258 31.3226 17.0552 34.4673 17.4963L38.5689 18.125C40.8443 18.4449 42.3637 18.9927 42.3637 20.6177C42.3637 22.1544 41.1328 23.4559 39.6719 23.4559H35.2489C33.2292 23.4559 31.4249 22.1177 30.7602 20.125L30.7017 19.9522L27.9004 20.9228L27.8566 20.9375L27.915 21.1066C29.0034 24.3236 31.9508 26.4853 35.2489 26.4853H39.6719C42.791 26.4853 45.333 23.8603 45.333 20.6361C45.333 17.5772 43.1672 15.7206 38.9013 15.114V15.1213Z" fill="#F0F0F0" fill-opacity="0.933333"/>
<path d="M59.4567 6.15076C57.3164 6.15076 55.1871 6.98164 53.5947 8.43017V6.15076H50.6472V33.0037H53.5947V24.2206C55.1834 25.6875 57.2616 26.4963 59.4567 26.4963C64.3143 26.4963 68.2661 22.4191 68.2661 17.4118V15.2831C68.2661 10.25 64.3143 6.15443 59.4567 6.15443V6.15076ZM65.3187 17.4302C65.3187 20.7096 62.6342 23.4816 59.4567 23.4816C56.2791 23.4816 53.5947 20.7096 53.5947 17.4302V15.2794C53.5947 11.9412 56.2243 9.22796 59.4567 9.22796C62.689 9.22796 65.3187 11.9449 65.3187 15.2794V17.4302Z" fill="#F0F0F0" fill-opacity="0.933333"/>
<path d="M82.0026 6.19116H79.9317C76.6556 6.19116 73.7081 8.33454 72.5978 11.5257L72.5394 11.6948L75.3407 12.6838L75.3992 12.511C76.0639 10.5441 77.8864 9.22425 79.9317 9.22425H82.0026C84.3036 9.22425 86.7653 10.25 86.7653 13.1287C86.7653 14.5956 85.4066 14.7941 84.0735 14.7941H77.7513C74.6943 14.7941 72.1121 17.4816 72.1121 20.6654C72.1121 23.8492 74.6431 26.4926 77.7513 26.4926H81.9369C83.6352 26.4926 85.3664 25.8823 86.6995 24.8088V26.4926H86.7434V26.5368H89.7346V13.1287C89.7346 8.33822 85.8522 6.19484 82.0026 6.19484V6.19116ZM86.6338 17.4559V18.4926C86.6338 21.2316 84.4972 23.4595 81.8711 23.4595H77.6855C76.2283 23.4595 74.9938 22.1801 74.9938 20.6654C74.9938 19.1507 76.2246 17.8272 77.6855 17.8272H84.0078C84.7528 17.8272 85.7207 17.7831 86.6338 17.4559Z" fill="#F0F0F0" fill-opacity="0.933333"/>
<path d="M103.186 9.22429C105.414 9.22429 107.474 10.5736 108.438 12.6618L108.515 12.8309L111.189 11.4743L111.112 11.3162C109.607 8.13237 106.543 6.15076 103.117 6.15076C98.2592 6.15076 94.3074 10.228 94.3074 15.2353V17.3861C94.3074 22.3971 98.2592 26.4706 103.117 26.4706C106.587 26.4706 109.651 24.4927 111.112 21.3052L111.185 21.1471L108.508 19.8125L108.431 19.9853C107.474 22.1434 105.462 23.4853 103.179 23.4853C100.001 23.4853 97.3169 20.7133 97.3169 17.4338V15.2831C97.3169 12.0037 100.001 9.23164 103.179 9.23164L103.186 9.22429Z" fill="#F0F0F0" fill-opacity="0.933333"/>
<path d="M132.084 15.1912C132.084 10.1802 128.132 6.10663 123.274 6.10663C118.416 6.10663 114.465 10.1838 114.465 15.1912V17.3419C114.465 22.353 118.416 26.4265 123.274 26.4265C126.744 26.4265 129.808 24.4485 131.269 21.261L131.342 21.103L128.665 19.7684L128.588 19.9412C127.631 22.0993 125.619 23.4412 123.336 23.4412C120.316 23.4412 117.785 20.9816 117.551 17.8309H131.974L132.146 17.8015V17.4485H132.08V15.1949L132.084 15.1912ZM129.187 14.7941H117.551C117.726 11.7206 120.316 9.22428 123.34 9.22428C126.364 9.22428 128.906 11.6655 129.187 14.7941Z" fill="#F0F0F0" fill-opacity="0.933333"/>
<path d="M153.457 6.25734C151.288 6.25734 149.648 6.9816 148.45 8.47057C147.307 7.10293 145.51 6.25734 143.749 6.25734C142.292 6.25734 141.222 6.54778 140.195 7.22425V6.25734H137.248V26.5551H140.195V12.6029C140.195 10.7831 141.686 9.24263 143.446 9.24263C145.539 9.24263 147 10.625 147 12.6029V26.5551H149.991V12.6029C149.991 10.7831 151.459 9.24263 153.198 9.24263C155.291 9.24263 156.752 10.625 156.752 12.6029V26.3162L156.773 26.4448V26.6213H159.677V12.6691C159.677 9.13234 156.887 6.25366 153.457 6.25366V6.25734Z" fill="#F0F0F0" fill-opacity="0.933333"/>
<path d="M181.642 15.1912C181.642 10.1802 177.691 6.10663 172.833 6.10663C167.975 6.10663 164.023 10.1838 164.023 15.1912V17.3419C164.023 22.353 167.975 26.4265 172.833 26.4265C176.303 26.4265 179.367 24.4485 180.828 21.261L180.901 21.103L178.224 19.7684L178.147 19.9412C177.19 22.0993 175.178 23.4412 172.895 23.4412C169.875 23.4412 167.343 20.9816 167.11 17.8309H181.533L181.704 17.8015V17.4485H181.639V15.1949L181.642 15.1912ZM178.768 14.7941H167.132C167.307 11.7206 169.896 9.22428 172.921 9.22428C175.945 9.22428 178.487 11.7169 178.768 14.7941Z" fill="#F0F0F0" fill-opacity="0.933333"/>
<path d="M197.019 15.1213L193.118 14.5772C191.186 14.2831 188.783 13.9118 188.783 11.9743C188.783 10.4338 189.988 9.18017 191.474 9.18017H195.897C197.914 9.18017 199.678 10.4706 200.39 12.4706L200.452 12.6397L203.206 11.6691L203.246 11.6544L203.191 11.4853C202.147 8.26841 199.217 6.10297 195.901 6.10297H191.478C188.37 6.10297 185.839 8.73532 185.839 11.9743C185.839 16.0258 189.447 17.0552 192.592 17.4963L196.694 18.125C198.969 18.4449 200.488 18.9927 200.488 20.6177C200.488 22.1544 199.258 23.4559 197.797 23.4559H193.374C191.354 23.4559 189.55 22.1177 188.885 20.125L188.826 19.9522L186.025 20.9228L185.981 20.9375L186.04 21.1066C187.128 24.3236 190.076 26.4853 193.374 26.4853H197.797C200.949 26.4853 203.436 23.8971 203.458 20.5919C203.458 17.5515 201.234 15.6581 197.022 15.114L197.019 15.1213Z" fill="#F0F0F0" fill-opacity="0.933333"/>
<path d="M217.191 6.19118C215.05 6.19118 212.921 7.02206 211.329 8.47059V0H208.381V26.4926H211.329V15.2794C211.329 11.9412 213.958 9.22794 217.191 9.22794C220.423 9.22794 223.053 11.9449 223.053 15.2794V26.4926H226V15.2794C226 10.2684 222.048 6.19485 217.191 6.19485V6.19118Z" fill="#F0F0F0" fill-opacity="0.933333"/>
</g>
<defs>
<clipPath id="clip0_4001_3">
<rect width="226" height="33" fill="white"/>
</clipPath>
</defs>
</svg>
